<svg width="429" height="126" viewBox="0 0 429 126" fill="none" xmlns="http://www.w3.org/2000/svg">
<g clip-path="url(#clip0_26_2)">
<line x1="70.5" y1="2.18557e-08" x2="70.5" y2="67" stroke="#2C2C2C" stroke-dasharray="3 3"/>
<line x1="359.5" y1="2.18557e-08" x2="359.5" y2="67" stroke="#2C2C2C" stroke-dasharray="3 3"/>
<line x1="326" y1="25.5" x2="430" y2="25.5" stroke="#2C2C2C" stroke-dasharray="3 3"/>
<line x1="-34" y1="25.5" x2="70" y2="25.5" stroke="#2C2C2C" stroke-dasharray="3 3"/>
<line x1="360" y1="64.5" x2="430" y2="64.5" stroke="#2C2C2C" stroke-dasharray="3 3"/>
<line x1="4.37114e-08" y1="64.5" x2="70" y2="64.5" stroke="#2C2C2C" stroke-dasharray="3 3"/>
<g clip-path="url(#clip1_26_2)">
<g clip-path="url(#clip2_26_2)">
<line y1="-0.25" x2="139.344" y2="-0.25" transform="matrix(-0.456191 0.889882 -0.456191 -0.889882 124.784 -64.6)" stroke="#E2E2E2" stroke-width="0.5"/>
</g>
<rect x="83.3" y="40.3" width="19.4" height="19.4" rx="9.7" stroke="#989898" stroke-width="0.6"/>
<g opacity="0.6">
<g clip-path="url(#clip3_26_2)">
<line y1="-0.25" x2="139.344" y2="-0.25" transform="matrix(-0.456191 0.889882 -0.456191 -0.889882 124.784 -37.6)" stroke="#E2E2E2" stroke-width="0.5"/>
</g>
<rect x="83.3" y="67.3" width="19.4" height="19.4" rx="1.7" stroke="#989898" stroke-width="0.6"/>
</g>
<g opacity="0.4">
<g clip-path="url(#clip4_26_2)">
<line y1="-0.25" x2="139.344" y2="-0.25" transform="matrix(-0.456191 0.889882 -0.456191 -0.889882 124.784 -10.6)" stroke="#E2E2E2" stroke-width="0.5"/>
</g>
<rect x="83.3" y="94.3" width="19.4" height="19.4" rx="1.7" stroke="#989898" stroke-width="0.6"/>
</g>
<g opacity="0.1">
<g clip-path="url(#clip5_26_2)">
<line y1="-0.25" x2="139.344" y2="-0.25" transform="matrix(-0.456191 0.889882 -0.456191 -0.889882 124.784 16.4)" stroke="#E2E2E2" stroke-width="0.5"/>
</g>
<rect x="83.3" y="121.3" width="19.4" height="19.4" rx="1.7" stroke="#989898" stroke-width="0.6"/>
</g>
<g clip-path="url(#clip6_26_2)">
<line y1="-0.25" x2="139.344" y2="-0.25" transform="matrix(-0.456191 0.889882 -0.456191 -0.889882 167.784 -72.6)" stroke="#E2E2E2" stroke-width="0.5"/>
</g>
<rect x="115.3" y="40.3" width="41.4" height="11.4" rx="1.7" stroke="#989898" stroke-width="0.6"/>
<g clip-path="url(#clip7_26_2)">
<line y1="-0.25" x2="139.344" y2="-0.25" transform="matrix(-0.456191 0.889882 -0.456191 -0.889882 215.784 -72.6)" stroke="#E2E2E2" stroke-width="0.5"/>
</g>
<rect x="163.3" y="40.3" width="41.4" height="11.4" rx="1.7" stroke="#989898" stroke-width="0.6"/>
<g opacity="0.4">
<g clip-path="url(#clip8_26_2)">
<line y1="-0.25" x2="139.344" y2="-0.25" transform="matrix(-0.456191 0.889882 -0.456191 -0.889882 263.784 -72.6)" stroke="#E2E2E2" stroke-width="0.5"/>
</g>
<rect x="211.3" y="40.3" width="41.4" height="11.4" rx="1.7" stroke="#989898" stroke-width="0.6"/>
</g>
<g opacity="0.2">
<g clip-path="url(#clip9_26_2)">
<line y1="-0.25" x2="139.344" y2="-0.25" transform="matrix(-0.456191 0.889882 -0.456191 -0.889882 311.784 -72.6)" stroke="#E2E2E2" stroke-width="0.5"/>
</g>
<rect x="259.3" y="40.3" width="41.4" height="11.4" rx="1.7" stroke="#989898" stroke-width="0.6"/>
</g>
<g clip-path="url(#clip10_26_2)">
<line x1="123.177" y1="63.1768" x2="59.1768" y2="127.177" stroke="url(#paint0_linear_26_2)" stroke-width="0.5"/>
<line x1="131.177" y1="63.1768" x2="67.1768" y2="127.177" stroke="url(#paint1_linear_26_2)" stroke-width="0.5"/>
<line x1="139.177" y1="63.1768" x2="75.1768" y2="127.177" stroke="url(#paint2_linear_26_2)" stroke-width="0.5"/>
<line x1="147.177" y1="63.1768" x2="83.1768" y2="127.177" stroke="url(#paint3_linear_26_2)" stroke-width="0.5"/>
<line x1="155.177" y1="63.1768" x2="91.1768" y2="127.177" stroke="url(#paint4_linear_26_2)" stroke-width="0.5"/>
<line x1="163.177" y1="63.1768" x2="99.1768" y2="127.177" stroke="url(#paint5_linear_26_2)" stroke-width="0.5"/>
<line x1="171.177" y1="63.1768" x2="107.177" y2="127.177" stroke="url(#paint6_linear_26_2)" stroke-width="0.5"/>
<line x1="179.177" y1="63.1768" x2="115.177" y2="127.177" stroke="url(#paint7_linear_26_2)" stroke-width="0.5"/>
<line x1="187.177" y1="63.1768" x2="123.177" y2="127.177" stroke="url(#paint8_linear_26_2)" stroke-width="0.5"/>
<line x1="195.177" y1="63.1768" x2="131.177" y2="127.177" stroke="url(#paint9_linear_26_2)" stroke-width="0.5"/>
<line x1="203.177" y1="63.1768" x2="139.177" y2="127.177" stroke="url(#paint10_linear_26_2)" stroke-width="0.5"/>
<line x1="211.177" y1="63.1768" x2="147.177" y2="127.177" stroke="url(#paint11_linear_26_2)" stroke-width="0.5"/>
<line x1="219.177" y1="63.1768" x2="155.177" y2="127.177" stroke="url(#paint12_linear_26_2)" stroke-width="0.5"/>
<line x1="227.177" y1="63.1768" x2="163.177" y2="127.177" stroke="url(#paint13_linear_26_2)" stroke-width="0.5"/>
<line x1="235.177" y1="63.1768" x2="171.177" y2="127.177" stroke="url(#paint14_linear_26_2)" stroke-width="0.5"/>
<line x1="243.177" y1="63.1768" x2="179.177" y2="127.177" stroke="url(#paint15_linear_26_2)" stroke-width="0.5"/>
<line x1="251.177" y1="63.1768" x2="187.177" y2="127.177" stroke="url(#paint16_linear_26_2)" stroke-width="0.5"/>
<line x1="259.177" y1="63.1768" x2="195.177" y2="127.177" stroke="url(#paint17_linear_26_2)" stroke-width="0.5"/>
<line x1="267.177" y1="63.1768" x2="203.177" y2="127.177" stroke="url(#paint18_linear_26_2)" stroke-width="0.5"/>
<line x1="275.177" y1="63.1768" x2="211.177" y2="127.177" stroke="url(#paint19_linear_26_2)" stroke-width="0.5"/>
<line x1="283.177" y1="63.1768" x2="219.177" y2="127.177" stroke="url(#paint20_linear_26_2)" stroke-width="0.5"/>
<line x1="291.177" y1="63.1768" x2="227.177" y2="127.177" stroke="url(#paint21_linear_26_2)" stroke-width="0.5"/>
<line x1="299.177" y1="63.1768" x2="235.177" y2="127.177" stroke="url(#paint22_linear_26_2)" stroke-width="0.5"/>
<line x1="307.177" y1="63.1768" x2="243.177" y2="127.177" stroke="url(#paint23_linear_26_2)" stroke-width="0.5"/>
<line x1="315.177" y1="63.1768" x2="251.177" y2="127.177" stroke="url(#paint24_linear_26_2)" stroke-width="0.5"/>
<line x1="323.177" y1="63.1768" x2="259.177" y2="127.177" stroke="url(#paint25_linear_26_2)" stroke-width="0.5"/>
<line x1="331.177" y1="63.1768" x2="267.177" y2="127.177" stroke="url(#paint26_linear_26_2)" stroke-width="0.5"/>
<line x1="339.177" y1="63.1768" x2="275.177" y2="127.177" stroke="url(#paint27_linear_26_2)" stroke-width="0.5"/>
<line x1="347.177" y1="63.1768" x2="283.177" y2="127.177" stroke="url(#paint28_linear_26_2)" stroke-width="0.5"/>
<line x1="355.177" y1="63.1768" x2="291.177" y2="127.177" stroke="url(#paint29_linear_26_2)" stroke-width="0.5"/>
<line x1="363.177" y1="63.1768" x2="299.177" y2="127.177" stroke="url(#paint30_linear_26_2)" stroke-width="0.5"/>
<line x1="371.177" y1="63.1768" x2="307.177" y2="127.177" stroke="url(#paint31_linear_26_2)" stroke-width="0.5"/>
<line x1="379.177" y1="63.1768" x2="315.177" y2="127.177" stroke="url(#paint32_linear_26_2)" stroke-width="0.5"/>
<line x1="387.177" y1="63.1768" x2="323.177" y2="127.177" stroke="url(#paint33_linear_26_2)" stroke-width="0.5"/>
<line x1="395.177" y1="63.1768" x2="331.177" y2="127.177" stroke="url(#paint34_linear_26_2)" stroke-width="0.5"/>
<line x1="403.177" y1="63.1768" x2="339.177" y2="127.177" stroke="url(#paint35_linear_26_2)" stroke-width="0.5"/>
<line x1="411.177" y1="63.1768" x2="347.177" y2="127.177" stroke="url(#paint36_linear_26_2)" stroke-width="0.5"/>
<line x1="419.177" y1="63.1768" x2="355.177" y2="127.177" stroke="url(#paint37_linear_26_2)" stroke-width="0.5"/>
</g>
<rect x="115.3" y="64.3" width="351.4" height="135.4" rx="1.7" stroke="url(#paint38_linear_26_2)" stroke-width="0.6"/>
</g>
<rect x="70.5" y="26.5" width="289" height="125" rx="3.5" stroke="url(#paint39_linear_26_2)"/>
</g>
<rect x="0.5" y="0.5" width="428" height="125" rx="3.5" stroke="#1B1B1B"/>
<defs>
<linearGradient id="paint0_linear_26_2" x1="122.646" y1="62.6464" x2="58.6464" y2="126.646" gradientUnits="userSpaceOnUse">
<stop stop-color="#A2A2A2"/>
<stop offset="1" stop-color="#3C3C3C" stop-opacity="0"/>
</linearGradient>
<linearGradient id="paint1_linear_26_2" x1="130.646" y1="62.6464" x2="66.6464" y2="126.646" gradientUnits="userSpaceOnUse">
<stop stop-color="#A2A2A2"/>
<stop offset="1" stop-color="#3C3C3C" stop-opacity="0"/>
</linearGradient>
<linearGradient id="paint2_linear_26_2" x1="138.646" y1="62.6464" x2="74.6464" y2="126.646" gradientUnits="userSpaceOnUse">
<stop stop-color="#A2A2A2"/>
<stop offset="1" stop-color="#3C3C3C" stop-opacity="0"/>
</linearGradient>
<linearGradient id="paint3_linear_26_2" x1="146.646" y1="62.6464" x2="82.6464" y2="126.646" gradientUnits="userSpaceOnUse">
<stop stop-color="#A2A2A2"/>
<stop offset="1" stop-color="#3C3C3C" stop-opacity="0"/>
</linearGradient>
<linearGradient id="paint4_linear_26_2" x1="154.646" y1="62.6464" x2="90.6464" y2="126.646" gradientUnits="userSpaceOnUse">
<stop stop-color="#A2A2A2"/>
<stop offset="1" stop-color="#3C3C3C" stop-opacity="0"/>
</linearGradient>
<linearGradient id="paint5_linear_26_2" x1="162.646" y1="62.6464" x2="98.6464" y2="126.646" gradientUnits="userSpaceOnUse">
<stop stop-color="#A2A2A2"/>
<stop offset="1" stop-color="#3C3C3C" stop-opacity="0"/>
</linearGradient>
<linearGradient id="paint6_linear_26_2" x1="170.646" y1="62.6464" x2="106.646" y2="126.646" gradientUnits="userSpaceOnUse">
<stop stop-color="#A2A2A2"/>
<stop offset="1" stop-color="#3C3C3C" stop-opacity="0"/>
</linearGradient>
<linearGradient id="paint7_linear_26_2" x1="178.646" y1="62.6464" x2="114.646" y2="126.646" gradientUnits="userSpaceOnUse">
<stop stop-color="#A2A2A2"/>
<stop offset="1" stop-color="#3C3C3C" stop-opacity="0"/>
</linearGradient>
<linearGradient id="paint8_linear_26_2" x1="186.646" y1="62.6464" x2="122.646" y2="126.646" gradientUnits="userSpaceOnUse">
<stop stop-color="#A2A2A2"/>
<stop offset="1" stop-color="#3C3C3C" stop-opacity="0"/>
</linearGradient>
<linearGradient id="paint9_linear_26_2" x1="194.646" y1="62.6464" x2="130.646" y2="126.646" gradientUnits="userSpaceOnUse">
<stop stop-color="#A2A2A2"/>
<stop offset="1" stop-color="#3C3C3C" stop-opacity="0"/>
</linearGradient>
<linearGradient id="paint10_linear_26_2" x1="202.646" y1="62.6464" x2="138.646" y2="126.646" gradientUnits="userSpaceOnUse">
<stop stop-color="#A2A2A2"/>
<stop offset="1" stop-color="#3C3C3C" stop-opacity="0"/>
</linearGradient>
<linearGradient id="paint11_linear_26_2" x1="210.646" y1="62.6464" x2="146.646" y2="126.646" gradientUnits="userSpaceOnUse">
<stop stop-color="#A2A2A2"/>
<stop offset="1" stop-color="#3C3C3C" stop-opacity="0"/>
</linearGradient>
<linearGradient id="paint12_linear_26_2" x1="218.646" y1="62.6464" x2="154.646" y2="126.646" gradientUnits="userSpaceOnUse">
<stop stop-color="#A2A2A2"/>
<stop offset="1" stop-color="#3C3C3C" stop-opacity="0"/>
</linearGradient>
<linearGradient id="paint13_linear_26_2" x1="226.646" y1="62.6464" x2="162.646" y2="126.646" gradientUnits="userSpaceOnUse">
<stop stop-color="#A2A2A2"/>
<stop offset="1" stop-color="#3C3C3C" stop-opacity="0"/>
</linearGradient>
<linearGradient id="paint14_linear_26_2" x1="234.646" y1="62.6464" x2="170.646" y2="126.646" gradientUnits="userSpaceOnUse">
<stop stop-color="#A2A2A2"/>
<stop offset="1" stop-color="#3C3C3C" stop-opacity="0"/>
</linearGradient>
<linearGradient id="paint15_linear_26_2" x1="242.646" y1="62.6464" x2="178.646" y2="126.646" gradientUnits="userSpaceOnUse">
<stop stop-color="#A2A2A2"/>
<stop offset="1" stop-color="#3C3C3C" stop-opacity="0"/>
</linearGradient>
<linearGradient id="paint16_linear_26_2" x1="250.646" y1="62.6464" x2="186.646" y2="126.646" gradientUnits="userSpaceOnUse">
<stop stop-color="#A2A2A2"/>
<stop offset="1" stop-color="#3C3C3C" stop-opacity="0"/>
</linearGradient>
<linearGradient id="paint17_linear_26_2" x1="258.646" y1="62.6464" x2="194.646" y2="126.646" gradientUnits="userSpaceOnUse">
<stop stop-color="#A2A2A2"/>
<stop offset="1" stop-color="#3C3C3C" stop-opacity="0"/>
</linearGradient>
<linearGradient id="paint18_linear_26_2" x1="266.646" y1="62.6464" x2="202.646" y2="126.646" gradientUnits="userSpaceOnUse">
<stop stop-color="#A2A2A2"/>
<stop offset="1" stop-color="#3C3C3C" stop-opacity="0"/>
</linearGradient>
<linearGradient id="paint19_linear_26_2" x1="274.646" y1="62.6464" x2="210.646" y2="126.646" gradientUnits="userSpaceOnUse">
<stop stop-color="#A2A2A2"/>
<stop offset="1" stop-color="#3C3C3C" stop-opacity="0"/>
</linearGradient>
<linearGradient id="paint20_linear_26_2" x1="282.646" y1="62.6464" x2="218.646" y2="126.646" gradientUnits="userSpaceOnUse">
<stop stop-color="#A2A2A2"/>
<stop offset="1" stop-color="#3C3C3C" stop-opacity="0"/>
</linearGradient>
<linearGradient id="paint21_linear_26_2" x1="290.646" y1="62.6464" x2="226.646" y2="126.646" gradientUnits="userSpaceOnUse">
<stop stop-color="#A2A2A2"/>
<stop offset="1" stop-color="#3C3C3C" stop-opacity="0"/>
</linearGradient>
<linearGradient id="paint22_linear_26_2" x1="298.646" y1="62.6464" x2="234.646" y2="126.646" gradientUnits="userSpaceOnUse">
<stop stop-color="#A2A2A2"/>
<stop offset="1" stop-color="#3C3C3C" stop-opacity="0"/>
</linearGradient>
<linearGradient id="paint23_linear_26_2" x1="306.646" y1="62.6464" x2="242.646" y2="126.646" gradientUnits="userSpaceOnUse">
<stop stop-color="#A2A2A2"/>
<stop offset="1" stop-color="#3C3C3C" stop-opacity="0"/>
</linearGradient>
<linearGradient id="paint24_linear_26_2" x1="314.646" y1="62.6464" x2="250.646" y2="126.646" gradientUnits="userSpaceOnUse">
<stop stop-color="#A2A2A2"/>
<stop offset="1" stop-color="#3C3C3C" stop-opacity="0"/>
</linearGradient>
<linearGradient id="paint25_linear_26_2" x1="322.646" y1="62.6464" x2="258.646" y2="126.646" gradientUnits="userSpaceOnUse">
<stop stop-color="#A2A2A2"/>
<stop offset="1" stop-color="#3C3C3C" stop-opacity="0"/>
</linearGradient>
<linearGradient id="paint26_linear_26_2" x1="330.646" y1="62.6464" x2="266.646" y2="126.646" gradientUnits="userSpaceOnUse">
<stop stop-color="#A2A2A2"/>
<stop offset="1" stop-color="#3C3C3C" stop-opacity="0"/>
</linearGradient>
<linearGradient id="paint27_linear_26_2" x1="338.646" y1="62.6464" x2="274.646" y2="126.646" gradientUnits="userSpaceOnUse">
<stop stop-color="#A2A2A2"/>
<stop offset="1" stop-color="#3C3C3C" stop-opacity="0"/>
</linearGradient>
<linearGradient id="paint28_linear_26_2" x1="346.646" y1="62.6464" x2="282.646" y2="126.646" gradientUnits="userSpaceOnUse">
<stop stop-color="#A2A2A2"/>
<stop offset="1" stop-color="#3C3C3C" stop-opacity="0"/>
</linearGradient>
<linearGradient id="paint29_linear_26_2" x1="354.646" y1="62.6464" x2="290.646" y2="126.646" gradientUnits="userSpaceOnUse">
<stop stop-color="#A2A2A2"/>
<stop offset="1" stop-color="#3C3C3C" stop-opacity="0"/>
</linearGradient>
<linearGradient id="paint30_linear_26_2" x1="362.646" y1="62.6464" x2="298.646" y2="126.646" gradientUnits="userSpaceOnUse">
<stop stop-color="#A2A2A2"/>
<stop offset="1" stop-color="#3C3C3C" stop-opacity="0"/>
</linearGradient>
<linearGradient id="paint31_linear_26_2" x1="370.646" y1="62.6464" x2="306.646" y2="126.646" gradientUnits="userSpaceOnUse">
<stop stop-color="#A2A2A2"/>
<stop offset="1" stop-color="#3C3C3C" stop-opacity="0"/>
</linearGradient>
<linearGradient id="paint32_linear_26_2" x1="378.646" y1="62.6464" x2="314.646" y2="126.646" gradientUnits="userSpaceOnUse">
<stop stop-color="#A2A2A2"/>
<stop offset="1" stop-color="#3C3C3C" stop-opacity="0"/>
</linearGradient>
<linearGradient id="paint33_linear_26_2" x1="386.646" y1="62.6464" x2="322.646" y2="126.646" gradientUnits="userSpaceOnUse">
<stop stop-color="#A2A2A2"/>
<stop offset="1" stop-color="#3C3C3C" stop-opacity="0"/>
</linearGradient>
<linearGradient id="paint34_linear_26_2" x1="394.646" y1="62.6464" x2="330.646" y2="126.646" gradientUnits="userSpaceOnUse">
<stop stop-color="#A2A2A2"/>
<stop offset="1" stop-color="#3C3C3C" stop-opacity="0"/>
</linearGradient>
<linearGradient id="paint35_linear_26_2" x1="402.646" y1="62.6464" x2="338.646" y2="126.646" gradientUnits="userSpaceOnUse">
<stop stop-color="#A2A2A2"/>
<stop offset="1" stop-color="#3C3C3C" stop-opacity="0"/>
</linearGradient>
<linearGradient id="paint36_linear_26_2" x1="410.646" y1="62.6464" x2="346.646" y2="126.646" gradientUnits="userSpaceOnUse">
<stop stop-color="#A2A2A2"/>
<stop offset="1" stop-color="#3C3C3C" stop-opacity="0"/>
</linearGradient>
<linearGradient id="paint37_linear_26_2" x1="418.646" y1="62.6464" x2="354.646" y2="126.646" gradientUnits="userSpaceOnUse">
<stop stop-color="#A2A2A2"/>
<stop offset="1" stop-color="#3C3C3C" stop-opacity="0"/>
</linearGradient>
<linearGradient id="paint38_linear_26_2" x1="291" y1="64" x2="291" y2="200" gradientUnits="userSpaceOnUse">
<stop stop-color="#A8A8A8"/>
<stop offset="0.628705" stop-color="#A8A8A8" stop-opacity="0"/>
</linearGradient>
<linearGradient id="paint39_linear_26_2" x1="215" y1="152" x2="215" y2="26" gradientUnits="userSpaceOnUse">
<stop stop-color="#1B1B1B" stop-opacity="0"/>
<stop offset="1" stop-color="white"/>
</linearGradient>
<clipPath id="clip0_26_2">
<rect width="429" height="126" rx="4" fill="white"/>
</clipPath>
<clipPath id="clip1_26_2">
<rect x="70" y="26" width="290" height="126" rx="4" fill="white"/>
</clipPath>
<clipPath id="clip2_26_2">
<rect x="83" y="40" width="20" height="20" rx="10" fill="white"/>
</clipPath>
<clipPath id="clip3_26_2">
<rect x="83" y="67" width="20" height="20" rx="2" fill="white"/>
</clipPath>
<clipPath id="clip4_26_2">
<rect x="83" y="94" width="20" height="20" rx="2" fill="white"/>
</clipPath>
<clipPath id="clip5_26_2">
<rect x="83" y="121" width="20" height="20" rx="2" fill="white"/>
</clipPath>
<clipPath id="clip6_26_2">
<rect x="115" y="40" width="42" height="12" rx="2" fill="white"/>
</clipPath>
<clipPath id="clip7_26_2">
<rect x="163" y="40" width="42" height="12" rx="2" fill="white"/>
</clipPath>
<clipPath id="clip8_26_2">
<rect x="211" y="40" width="42" height="12" rx="2" fill="white"/>
</clipPath>
<clipPath id="clip9_26_2">
<rect x="259" y="40" width="42" height="12" rx="2" fill="white"/>
</clipPath>
<clipPath id="clip10_26_2">
<rect x="115" y="64" width="352" height="136" rx="2" fill="white"/>
</clipPath>
</defs>
</svg>
